HIERARCHY
ROOT reference
{
  OFFSET 0 0 0
  CHANNELS 6 Xposition Yposition Zposition Zrotation Xrotation Yrotation
  JOINT Hips
  {
    OFFSET 347.352 87.9396 215.108
    CHANNELS 3 Zrotation Xrotation Yrotation
    JOINT RightUpLeg
    {
      OFFSET -9.26448 -1.5905 0.0349838
      CHANNELS 3 Zrotation Xrotation Yrotation
      JOINT RightLeg
      {
        OFFSET 0.0309074 -41.8937 0.0182011
        CHANNELS 3 Zrotation Xrotation Yrotation
        JOINT RightFoot
        {
          OFFSET 0.355296 -42.3801 0.810868
          CHANNELS 3 Zrotation Xrotation Yrotation
          End Site
          {
            OFFSET 0 -7.69 17.5
          }
        }
      }
    }
    JOINT LeftUpLeg
    {
      OFFSET 9.27369 -1.59127 -0.0547904
      CHANNELS 3 Zrotation Xrotation Yrotation
      JOINT LeftLeg
      {
        OFFSET 0.0553589 -41.8938 0.0587288
        CHANNELS 3 Zrotation Xrotation Yrotation
        JOINT LeftFoot
        {
          OFFSET 0.217916 -41.5497 -0.688939
          CHANNELS 3 Zrotation Xrotation Yrotation
          End Site
          {
            OFFSET 0 -7.69 17.5
          }
        }
      }
    }
    JOINT Spine
    {
      OFFSET 0.0383554 14.2988 0.0402393
      CHANNELS 3 Zrotation Xrotation Yrotation
      JOINT Spine1
      {
        OFFSET 0.0188251 9.70742 0.0136471
        CHANNELS 3 Zrotation Xrotation Yrotation
        JOINT Spine2
        {
          OFFSET 0.0421292 10.115 0.0126686
          CHANNELS 3 Zrotation Xrotation Yrotation
          JOINT Spine3
          {
            OFFSET 0.0499826 9.71803 0.0151296
            CHANNELS 3 Zrotation Xrotation Yrotation
            JOINT Neck
            {
              OFFSET 0.04654 10.3867 0.0448026
              CHANNELS 3 Zrotation Xrotation Yrotation
              JOINT Head
              {
                OFFSET 0.0370611 9.47282 0.0189897
                CHANNELS 3 Zrotation Xrotation Yrotation
                End Site
                {
                  OFFSET 0 15.95 0
                }
              }
            }
            JOINT RightShoulder
            {
              OFFSET -3.19309 6.93146 -0.00624137
              CHANNELS 3 Zrotation Xrotation Yrotation
              JOINT RightArm
              {
                OFFSET -12.7764 0.00688168 -0.00548706
                CHANNELS 3 Zrotation Xrotation Yrotation
                JOINT RightForeArm
                {
                  OFFSET -26.5073 -0.0244096 0.0677859
                  CHANNELS 3 Zrotation Xrotation Yrotation
                  JOINT RightHand
                  {
                    OFFSET -26.0056 -0.000416843 0.0508974
                    CHANNELS 3 Zrotation Xrotation Yrotation
                    JOINT RightHandThumb1
                    {
                      OFFSET -2.48905 0.190105 3.12053
                      CHANNELS 3 Zrotation Xrotation Yrotation
                      JOINT RightHandThumb2
                      {
                        OFFSET -3.68274 0 0
                        CHANNELS 3 Zrotation Xrotation Yrotation
                        JOINT RightHandThumb3
                        {
                          OFFSET -2.55832 0 0
                          CHANNELS 3 Zrotation Xrotation Yrotation
                          End Site
                          {
                            OFFSET -2.194 0 0
                          }
                        }
                      }
                    }
                    JOINT RightInHandIndex
                    {
                      OFFSET -3.22368 0.508421 1.97842
                      CHANNELS 3 Zrotation Xrotation Yrotation
                      JOINT RightHandIndex1
                      {
                        OFFSET -5.21684 -0.091368 0.999158
                        CHANNELS 3 Zrotation Xrotation Yrotation
                        JOINT RightHandIndex2
                        {
                          OFFSET -3.61937 0 0
                          CHANNELS 3 Zrotation Xrotation Yrotation
                          JOINT RightHandIndex3
                          {
                            OFFSET -2.0521 0 0
                            CHANNELS 3 Zrotation Xrotation Yrotation
                            End Site
                            {
                              OFFSET -1.805 0 0
                            }
                          }
                        }
                      }
                    }
                    JOINT RightInHandMiddle
                    {
                      OFFSET -3.38211 0.517263 0.756737
                      CHANNELS 3 Zrotation Xrotation Yrotation
                      JOINT RightHandMiddle1
                      {
                        OFFSET -5.17411 -0.084 0.313895
                        CHANNELS 3 Zrotation Xrotation Yrotation
                        JOINT RightHandMiddle2
                        {
                          OFFSET -3.94947 0 0
                          CHANNELS 3 Zrotation Xrotation Yrotation
                          JOINT RightHandMiddle3
                          {
                            OFFSET -2.47579 0 0
                            CHANNELS 3 Zrotation Xrotation Yrotation
                            End Site
                            {
                              OFFSET -1.975 0 0
                            }
                          }
                        }
                      }
                    }
                    JOINT RightInHandRing
                    {
                      OFFSET -3.36516 0.537895 -0.128947
                      CHANNELS 3 Zrotation Xrotation Yrotation
                      JOINT RightHandRing1
                      {
                        OFFSET -4.63474 -0.022105 -0.478947
                        CHANNELS 3 Zrotation Xrotation Yrotation
                        JOINT RightHandRing2
                        {
                          OFFSET -3.44238 0 0
                          CHANNELS 3 Zrotation Xrotation Yrotation
                          JOINT RightHandRing3
                          {
                            OFFSET -2.3881 0 0
                            CHANNELS 3 Zrotation Xrotation Yrotation
                            End Site
                            {
                              OFFSET -1.857 0 0
                            }
                          }
                        }
                      }
                    }
                    JOINT RightInHandPinky
                    {
                      OFFSET -3.16105 0.469368 -1.20179
                      CHANNELS 3 Zrotation Xrotation Yrotation
                      JOINT RightHandPinky1
                      {
                        OFFSET -4.14105 -0.022105 -1.09053
                        CHANNELS 3 Zrotation Xrotation Yrotation
                        JOINT RightHandPinky2
                        {
                          OFFSET -2.75653 0 0
                          CHANNELS 3 Zrotation Xrotation Yrotation
                          JOINT RightHandPinky3
                          {
                            OFFSET -1.74189 0 0
                            CHANNELS 3 Zrotation Xrotation Yrotation
                            End Site
                            {
                              OFFSET -1.645 0 0
                            }
                          }
                        }
                      }
                    }
                  }
                }
              }
            }
            JOINT LeftShoulder
            {
              OFFSET 3.25131 6.94393 -0.0111894
              CHANNELS 3 Zrotation Xrotation Yrotation
              JOINT LeftArm
              {
                OFFSET 12.7762 -0.0164608 -0.057961
                CHANNELS 3 Zrotation Xrotation Yrotation
                JOINT LeftForeArm
                {
                  OFFSET 26.494 -0.0292415 -0.00751187
                  CHANNELS 3 Zrotation Xrotation Yrotation
                  JOINT LeftHand
                  {
                    OFFSET 26.0005 -0.052199 0.00178648
                    CHANNELS 3 Zrotation Xrotation Yrotation
                    JOINT LeftHandThumb1
                    {
                      OFFSET 2.48905 0.190105 3.12053
                      CHANNELS 3 Zrotation Xrotation Yrotation
                      JOINT LeftHandThumb2
                      {
                        OFFSET 3.68274 0 0
                        CHANNELS 3 Zrotation Xrotation Yrotation
                        JOINT LeftHandThumb3
                        {
                          OFFSET 2.55832 0 0
                          CHANNELS 3 Zrotation Xrotation Yrotation
                          End Site
                          {
                            OFFSET 2.194 0 0
                          }
                        }
                      }
                    }
                    JOINT LeftInHandIndex
                    {
                      OFFSET 3.22368 0.508421 1.97842
                      CHANNELS 3 Zrotation Xrotation Yrotation
                      JOINT LeftHandIndex1
                      {
                        OFFSET 5.21684 -0.091368 0.999158
                        CHANNELS 3 Zrotation Xrotation Yrotation
                        JOINT LeftHandIndex2
                        {
                          OFFSET 3.61937 0 0
                          CHANNELS 3 Zrotation Xrotation Yrotation
                          JOINT LeftHandIndex3
                          {
                            OFFSET 2.0521 0 0
                            CHANNELS 3 Zrotation Xrotation Yrotation
                            End Site
                            {
                              OFFSET 1.805 0 0
                            }
                          }
                        }
                      }
                    }
                    JOINT LeftInHandMiddle
                    {
                      OFFSET 3.38211 0.517263 0.756737
                      CHANNELS 3 Zrotation Xrotation Yrotation
                      JOINT LeftHandMiddle1
                      {
                        OFFSET 5.17411 -0.084 0.313895
                        CHANNELS 3 Zrotation Xrotation Yrotation
                        JOINT LeftHandMiddle2
                        {
                          OFFSET 3.94947 0 0
                          CHANNELS 3 Zrotation Xrotation Yrotation
                          JOINT LeftHandMiddle3
                          {
                            OFFSET 2.47579 0 0
                            CHANNELS 3 Zrotation Xrotation Yrotation
                            End Site
                            {
                              OFFSET 1.975 0 0
                            }
                          }
                        }
                      }
                    }
                    JOINT LeftInHandRing
                    {
                      OFFSET 3.36516 0.537895 -0.128947
                      CHANNELS 3 Zrotation Xrotation Yrotation
                      JOINT LeftHandRing1
                      {
                        OFFSET 4.63474 -0.022105 -0.478947
                        CHANNELS 3 Zrotation Xrotation Yrotation
                        JOINT LeftHandRing2
                        {
                          OFFSET 3.44238 0 0
                          CHANNELS 3 Zrotation Xrotation Yrotation
                          JOINT LeftHandRing3
                          {
                            OFFSET 2.3881 0 0
                            CHANNELS 3 Zrotation Xrotation Yrotation
                            End Site
                            {
                              OFFSET 1.857 0 0
                            }
                          }
                        }
                      }
                    }
                    JOINT LeftInHandPinky
                    {
                      OFFSET 3.16105 0.469368 -1.20179
                      CHANNELS 3 Zrotation Xrotation Yrotation
                      JOINT LeftHandPinky1
                      {
                        OFFSET 4.14105 -0.022105 -1.09053
                        CHANNELS 3 Zrotation Xrotation Yrotation
                        JOINT LeftHandPinky2
                        {
                          OFFSET 2.75653 0 0
                          CHANNELS 3 Zrotation Xrotation Yrotation
                          JOINT LeftHandPinky3
                          {
                            OFFSET 1.74189 0 0
                            CHANNELS 3 Zrotation Xrotation Yrotation
                            End Site
                            {
                              OFFSET 1.645 0 0
                            }
                          }
                        }
                      }
                    }
                  }
                }
              }
            }
          }
        }
      }
    }
  }
}
MOTION
Frames: 2
Frame Time: 0.00833333
3.000000000000000000e+02 0.000000000000000000e+00 0.000000000000000000e+00 0.000000000000000000e+00 0.000000000000000000e+00 0.000000000000000000e+00 -8.531767208085283549e-02 4.963702287493598070e-02 2.393675837298224751e-01 -9.387363002469314988e-02 2.506030373726189642e-01 -3.309580299281280613e-01 2.530711059742533214e-02 -1.611289350987890612e-02 8.719125569372049300e-02 1.346824509491842230e-02 -1.115534815920285056e-01 1.146733648614427642e-01 -1.743043084398415155e-01 -1.685319220182634331e-02 -4.061341669644180641e-01 -2.266568739275428082e-02 3.079599988852282227e-02 4.044053475085568339e-02 -2.111954486470966202e-02 -7.756326053065025483e-02 2.044378398485787590e-02 6.582982241102482146e-02 8.212351822067924523e-02 -1.669760812998892230e-01 2.054962893292158754e-02 6.142649717734376298e-03 -4.113614654325145614e-02 3.234187352803146592e-02 6.058873602262185645e-03 -6.559064680793084967e-02 -2.409876673640818506e-03 -2.445883471375910785e-03 3.474930465451116224e-03 -1.918931448938316882e-03 -1.583765788161387716e-03 -6.072483251364726607e-04 -3.067630957419604718e-02 -5.464107973047378775e-02 3.905138369073560961e-02 -1.386435293563862900e-02 -5.169879085198212515e-02 -1.008105033968100667e-02 -9.358901856048919277e-02 1.712190864403569379e-01 -2.295824142065453627e-02 -1.907959775322182194e-02 -1.957138774357618793e-01 1.113875453224002221e-01 9.785982862638009649e-02 -7.149266187789458937e-02 1.171780664055278864e-01 0.000000000000000000e+00 0.000000000000000000e+00 0.000000000000000000e+00 4.556982480120077737e-15 -3.549983725496939250e-15 0.000000000000000000e+00 -3.544763780925357258e-15 -3.458513265756577236e-15 0.000000000000000000e+00 -4.907062507050688148e-15 1.456099627970280220e-15 1.099716537186667172e-14 0.000000000000000000e+00 0.000000000000000000e+00 0.000000000000000000e+00 0.000000000000000000e+00 -9.223227257448396556e-15 -7.197824590604283863e-16 0.000000000000000000e+00 -1.018231118646218541e-14 -3.876591551635798563e-14 -4.907062507050688148e-15 1.456099627970280220e-15 1.099716537186667172e-14 0.000000000000000000e+00 4.702346336362852122e-15 -1.300805343737163202e-14 0.000000000000000000e+00 -1.081120504072838576e-15 -3.283101341294201845e-14 0.000000000000000000e+00 9.391674087945186823e-16 -2.702414238418666481e-14 -4.907062507050688148e-15 1.456099627970280220e-15 1.099716537186667172e-14 0.000000000000000000e+00 0.000000000000000000e+00 0.000000000000000000e+00 0.000000000000000000e+00 -8.318169171742829790e-15 -1.431958674971840134e-14 0.000000000000000000e+00 -4.784932007576575779e-15 -3.115183464381809579e-14 -4.907062507050688148e-15 1.456099627970280220e-15 1.099716537186667172e-14 0.000000000000000000e+00 0.000000000000000000e+00 0.000000000000000000e+00 0.000000000000000000e+00 4.206919477155105110e-15 -1.087370729904270805e-14 0.000000000000000000e+00 1.250943568433898030e-15 -1.541503956080939239e-14 8.682622662923278334e-02 4.551272460022329214e-02 5.352307312086868746e-02 6.718397668973075110e-02 -1.409568875351177586e-02 -3.517218376119557455e-02 8.424382032908800388e-02 -1.877963151344317350e-01 -2.793641469206013112e-02 5.686153320111215770e-01 5.922306990506424063e-01 3.749323172495847567e-01 0.000000000000000000e+00 0.000000000000000000e+00 0.000000000000000000e+00 -5.363886843189775097e-15 -3.197019647438620799e-15 0.000000000000000000e+00 -4.047943011821053364e-16 -4.468107514084595942e-15 0.000000000000000000e+00 5.200888145531778561e-15 -1.584811371257924265e-15 4.921933322091981894e-15 0.000000000000000000e+00 0.000000000000000000e+00 0.000000000000000000e+00 0.000000000000000000e+00 -3.891932712657253131e-15 -6.396344900525793962e-15 0.000000000000000000e+00 -3.322198708370254846e-15 1.195022823095426024e-14 5.200888145531778561e-15 -1.584811371257924265e-15 4.921933322091981894e-15 0.000000000000000000e+00 1.595124416148260577e-15 1.077512474180674212e-14 0.000000000000000000e+00 -2.203992657556250575e-15 7.766618752829873824e-15 0.000000000000000000e+00 -4.109943255889987439e-15 1.916123159816539240e-15 5.200888145531778561e-15 -1.584811371257924265e-15 4.921933322091981894e-15 0.000000000000000000e+00 0.000000000000000000e+00 0.000000000000000000e+00 0.000000000000000000e+00 9.936058116448782814e-16 8.808456996431187846e-15 0.000000000000000000e+00 -8.959593073492983741e-16 4.521692815317313584e-15 5.200888145531778561e-15 -1.584811371257924265e-15 4.921933322091981894e-15 0.000000000000000000e+00 0.000000000000000000e+00 0.000000000000000000e+00 0.000000000000000000e+00 4.712847643051159841e-15 1.374584534770395718e-14 0.000000000000000000e+00 -5.989464308203700330e-16 9.845174625142194298e-15
3.000000000000000000e+02 0.000000000000000000e+00 0.000000000000000000e+00 0.000000000000000000e+00 0.000000000000000000e+00 0.000000000000000000e+00 -8.610962819400330703e-02 5.025768221799126190e-02 2.574795267917772690e-01 -1.308936094447165910e-01 2.523277912264333400e-01 -3.427124802062007092e-01 3.735038085401084368e-02 -2.936791658294519297e-02 5.421637259182773144e-02 -5.395665310176174685e-04 -6.968273946335061531e-02 7.803503624807972550e-02 -1.919781630002867501e-01 -2.062966218690456127e-02 -4.061468773498556617e-01 -1.292562884412211052e-02 1.514908346099519409e-02 4.327560526233904109e-02 -3.079260532053872818e-02 -5.042962738705131925e-02 -8.904085073243930837e-03 6.497950497210178145e-02 8.863014014290071518e-02 -1.596939997039649728e-01 2.131269421065080244e-02 7.123406405153259562e-03 -4.291124829760133153e-02 3.281275208944092747e-02 8.113222336040511184e-03 -6.306624026047656650e-02 -1.635630937624250924e-03 -2.168582291240434175e-03 2.318651089901109692e-03 -1.285506066024775119e-03 -1.626943682264158850e-03 -2.710889736920188355e-04 -1.712202991244011693e-02 -5.241699266644122418e-02 2.439516460729425004e-02 2.220341263806752119e-02 -3.863464354994880501e-02 -1.320730738023662316e-02 -1.324872647943043935e-01 1.930298407925877813e-01 -2.002948745004006631e-02 9.557428301766271450e-02 -3.452343911938317578e-01 2.328811181187960822e-01 1.498437950027798338e-01 -3.052545150151330863e-02 1.419827404060015341e-01 0.000000000000000000e+00 0.000000000000000000e+00 0.000000000000000000e+00 1.760146646831659121e-14 2.154329915769592246e-15 0.000000000000000000e+00 6.304017634904122499e-15 3.375383817213822304e-15 0.000000000000000000e+00 -8.339044170184791409e-15 3.082555718431576219e-15 7.145843865778805557e-15 0.000000000000000000e+00 0.000000000000000000e+00 0.000000000000000000e+00 0.000000000000000000e+00 -1.160251402759094278e-14 9.841208550862948246e-15 0.000000000000000000e+00 -7.426936520597305932e-16 -1.276498295422156672e-14 -8.339044170184791409e-15 3.082555718431576219e-15 7.145843865778805557e-15 0.000000000000000000e+00 2.026909048036715922e-15 -3.955205618997518550e-15 0.000000000000000000e+00 5.025423201307459382e-15 -1.915452407179815829e-14 0.000000000000000000e+00 3.926808503819912873e-15 -6.569225516669744480e-15 -8.339044170184791409e-15 3.082555718431576219e-15 7.145843865778805557e-15 0.000000000000000000e+00 0.000000000000000000e+00 0.000000000000000000e+00 0.000000000000000000e+00 -5.967431054831644289e-15 -1.508561774836035931e-15 0.000000000000000000e+00 -4.865083192946007342e-15 -1.306774317412149751e-14 -8.339044170184791409e-15 3.082555718431576219e-15 7.145843865778805557e-15 0.000000000000000000e+00 0.000000000000000000e+00 0.000000000000000000e+00 0.000000000000000000e+00 1.313175872087764449e-14 -4.414577087650499052e-15 0.000000000000000000e+00 6.150634434545185704e-15 1.176516305428142532e-15 7.785386476537070610e-02 4.200402887074938113e-02 4.617122772959681570e-02 4.777433092482666344e-02 -1.022898344581893090e-02 -2.283777944802411336e-02 1.084791297747696448e-01 -2.606501374631150711e-02 -7.384181981502077607e-03 6.327884521095332726e-01 6.191246287603794363e-01 4.268213226551539896e-01 0.000000000000000000e+00 0.000000000000000000e+00 0.000000000000000000e+00 -4.753533246611646736e-15 -9.810354648292406938e-15 0.000000000000000000e+00 -5.859325740714122324e-15 -7.877838451858816337e-15 0.000000000000000000e+00 4.198763932747123396e-15 2.818870608521294707e-15 5.019025025802268324e-15 0.000000000000000000e+00 0.000000000000000000e+00 0.000000000000000000e+00 0.000000000000000000e+00 -4.004204614544916223e-15 -1.014647132011961571e-14 0.000000000000000000e+00 -3.914111866032976746e-15 7.353298285784687936e-16 4.198763932747123396e-15 2.818870608521294707e-15 5.019025025802268324e-15 0.000000000000000000e+00 6.871815409537845785e-16 7.750550034320041031e-15 0.000000000000000000e+00 -2.783242127277896461e-15 -8.921685718222861653e-16 0.000000000000000000e+00 -4.722186966782963772e-15 -1.414658227301525357e-14 4.198763932747123396e-15 2.818870608521294707e-15 5.019025025802268324e-15 0.000000000000000000e+00 0.000000000000000000e+00 0.000000000000000000e+00 0.000000000000000000e+00 -1.730337316686398365e-15 3.961405284957538649e-15 0.000000000000000000e+00 1.304983662603002542e-16 1.079402115996692228e-14 4.198763932747123396e-15 2.818870608521294707e-15 5.019025025802268324e-15 0.000000000000000000e+00 0.000000000000000000e+00 0.000000000000000000e+00 0.000000000000000000e+00 2.033289227856106893e-15 9.066377740794125790e-15 0.000000000000000000e+00 4.504356689988654893e-15 -8.905555667965264529e-15
